<svg width="126" height="67" viewBox="0 0 126 67" fill="none" xmlns="http://www.w3.org/2000/svg">
<g clip-path="url(#clip0_674_4702)">
<path d="M0.0137617 38.4873C0.349271 35.0996 4.54085 32.5807 7.91892 32.9392C10.194 33.0128 12.6344 34.2906 14.721 33.5689C16.3526 32.9944 17.589 31.3764 18.2646 29.7997C19.2803 27.4187 18.8253 25.2215 18.3151 22.5601C17.8969 20.4181 17.5016 18.2163 17.4878 16.0651C17.2075 9.63446 21.6978 6.23298 27.7048 8.33822C32.7558 9.96542 34.2863 15.4308 34.7965 20.2158C35.5594 26.4626 38.5147 23.8242 39.921 19.4344C42.0812 11.8638 46.6129 7.35455 54.2514 12.2683C56.2231 13.6565 56.6919 15.4721 57.2894 18.4094C57.9007 21.5626 58.3465 24.9136 58.0386 28.1174C57.533 33.0817 54.9868 38.8275 55.6486 43.539C56.1588 47.6713 60.8008 50.9901 60.1481 55.2741C59.592 58.2711 56.4162 60.6199 53.2219 60.5234C48.6443 60.4177 43.9288 58.3078 41.833 54.4099C39.5993 48.7055 44.2413 42.3622 46.3647 37.0991C47.0587 35.2283 47.8814 33.6333 47.3482 31.9463C46.7553 30.4479 44.8434 30.6869 43.9472 31.7717C41.8835 34.2584 41.4056 37.9449 37.5449 39.14C34.1438 40.1972 31.6298 38.5838 30.8899 35.1272C30.444 33.6011 29.4743 30.6593 27.6313 31.7073C26.4225 32.4979 26.064 34.594 25.8112 36.0419C25.5171 37.6415 25.0253 39.0895 23.8947 40.735C19.7996 46.775 10.3043 52.7919 3.59406 47.6437C1.1306 45.5936 -0.110331 41.5303 0.0091657 38.5563V38.4919L0.0137617 38.4873Z" fill="#242326"/>
<path d="M62.7174 19.1494C62.6668 16.7822 62.9518 13.2198 65.6496 12.5901C69.6987 12.4384 71.2476 18.8001 70.3881 22.0223C69.6895 25.41 69.6941 26.6603 69.5241 30.0847C69.2483 34.0929 71.7715 35.0169 73.6789 32.9392C75.5862 30.8615 75.5724 28.9907 75.3243 26.0167C75.191 23.0611 74.5337 18.9839 75.1772 15.941C75.6827 13.514 78.0451 12.3924 80.0076 13.5921C83.018 15.5043 82.6871 19.8573 82.3975 23.0243C82.1815 25.2951 82.0482 27.7496 81.8552 30.3421C81.5748 34.1527 81.2393 37.9311 78.6104 40.8867C75.3242 45.1248 70.1491 47.3449 64.9694 45.3592C61.3615 44.1227 58.9946 41.351 59.5553 37.4623C59.8816 34.3136 61.0674 31.1327 61.6878 28.1036C62.3129 25.1939 62.7495 22.1326 62.722 19.2276V19.1448L62.7174 19.1494Z" fill="#242326"/>
<path d="M97.9505 48.9354C97.9367 47.2254 96.9439 45.8235 95.3124 44.3847C92.3801 41.9072 88.1242 40.8913 84.3876 41.4705C78.3392 42.4634 70.8661 48.6917 70.0388 54.8834C69.4597 59.9304 74.3407 62.955 78.3392 64.8901C82.0436 66.6736 86.0192 67.8871 89.8569 66.1864C92.9408 65.0097 94.6965 60.2338 92.2974 57.9769C91.0059 56.6484 88.5286 56.5565 86.6121 56.8323C84.3141 57.0208 83.2616 57.4161 81.1152 56.3037C78.2473 54.7087 78.6472 52.7413 80.5775 50.4201C82.2826 48.3654 85.5274 47.5656 87.0855 48.6044C88.4964 49.5467 87.853 50.1764 89.2502 51.2015C91.5666 53.2148 97.6609 52.2449 97.9551 49.0043V48.9446L97.9505 48.9354Z" fill="#242326"/>
<path d="M87.9174 27.2854C86.7086 21.3099 84.1578 15.2194 81.4783 9.68966C80.4258 7.37297 79.5572 4.61961 80.8073 2.24777C81.869 0.137928 84.6542 -0.657283 86.681 0.606781C89.549 2.33051 90.0499 6.02157 91.2862 8.86227C92.4674 11.8868 94.8803 13.514 98.0424 13.9967C101.324 14.5207 104.872 14.87 107.625 16.9293C112.267 20.34 113.421 26.812 112.966 32.2865C112.777 33.7528 112.304 35.2789 111.412 36.4143C109.335 39.1584 105.787 38.3724 104.518 35.3249C102.684 31.7349 104.091 24.5597 99.2098 23.3921C95.988 23.5438 96.921 28.1174 97.6425 30.3835C98.4652 33.1185 99.4626 36.52 97.3116 38.8735C95.5927 40.8178 92.4307 40.611 90.9186 38.5655C88.5976 35.4398 88.7309 31.0225 87.9266 27.3866L87.9082 27.2946L87.9174 27.2854Z" fill="#242326"/>
<path d="M111.054 42.0635C112.621 40.735 114.648 38.5379 115.838 36.6073C118.049 33.4862 119.478 27.6118 123.445 29.8319C125.118 30.9765 125.959 33.2012 126 35.5087C125.922 40.6707 122.337 44.9271 119.129 48.6734C117.139 50.8384 114.629 53.1229 112.488 54.626C111.467 55.3338 110.378 55.9268 109.179 56.2532C106.2 57.1265 101.926 56.1934 100.501 53.0907C98.98 49.6662 102.836 47.9931 105.226 46.6049C107.46 45.2259 109.22 43.6079 110.999 42.1048L111.045 42.0635H111.054Z" fill="#242326"/>
</g>
<defs>
<clipPath id="clip0_674_4702">
<rect width="126" height="67" fill="white"/>
</clipPath>
</defs>
</svg>
