<svg width="288" height="153" viewBox="0 0 288 153" fill="none" xmlns="http://www.w3.org/2000/svg">
<g clip-path="url(#clip0_574_2073)">
<path d="M0.0315164 87.8889C0.798396 80.1529 10.3791 74.4007 18.1005 75.2194C23.3005 75.3873 28.8788 78.3054 33.6481 76.6574C37.3775 75.3454 40.2034 71.6505 41.7477 68.0501C44.0693 62.6129 43.0293 57.5954 41.8632 51.5178C40.9072 46.6264 40.0038 41.5984 39.9723 36.686C39.3315 22.0011 49.595 14.2335 63.3253 19.041C74.8705 22.7569 78.3688 35.2374 79.5349 46.1645C81.2787 60.4295 88.0336 54.4044 91.2482 44.3801C96.1856 27.092 106.544 16.7947 124.003 28.0157C128.51 31.1857 129.582 35.3319 130.947 42.0393C132.344 49.24 133.363 56.8921 132.66 64.2083C131.504 75.5448 125.684 88.6657 127.197 99.4248C128.363 108.861 138.973 116.44 137.482 126.223C136.21 133.067 128.951 138.431 121.65 138.21C111.187 137.969 100.409 133.151 95.6183 124.25C90.5128 111.223 101.123 96.7376 105.976 84.7189C107.563 80.4468 109.443 76.8044 108.225 72.9521C106.869 69.5302 102.499 70.076 100.451 72.5532C95.7339 78.232 94.6413 86.6503 85.817 89.3795C78.0431 91.7937 72.2968 88.1093 70.6054 80.2158C69.5864 76.7309 67.3698 70.013 63.1573 72.4063C60.3944 74.2117 59.575 78.9982 58.9972 82.3047C58.3249 85.9575 57.2008 89.264 54.6165 93.0218C45.2564 106.814 23.5527 120.555 8.21507 108.798C2.58428 104.117 -0.252124 94.8377 0.0210112 88.0464V87.8994L0.0315164 87.8889Z" fill="#F9F6F0"/>
<path d="M143.354 43.7293C143.238 38.3235 143.89 30.1885 150.056 28.7505C159.311 28.4041 162.852 42.9315 160.887 50.2897C159.29 58.0258 159.301 60.8809 158.912 68.7009C158.282 77.8541 164.049 79.9639 168.409 75.2194C172.768 70.4749 172.737 66.2027 172.17 59.4114C171.865 52.662 170.363 43.3514 171.834 36.4026C172.989 30.8603 178.389 28.2991 182.874 31.0388C189.755 35.4054 188.999 45.3458 188.337 52.578C187.843 57.7634 187.539 63.3686 187.098 69.2888C186.457 77.9905 185.69 86.6188 179.681 93.3682C172.17 103.046 160.341 108.116 148.501 103.581C140.255 100.758 134.845 94.4284 136.126 85.5482C136.872 78.3579 139.583 71.0942 141.001 64.1769C142.429 57.5324 143.427 50.5416 143.364 43.9077V43.7188L143.354 43.7293Z" fill="#F9F6F0"/>
<path d="M223.887 111.748C223.855 107.843 221.586 104.642 217.857 101.356C211.154 95.6985 201.427 93.3787 192.886 94.7013C179.061 96.9686 161.98 111.192 160.089 125.331C158.765 136.856 169.922 143.763 179.061 148.182C187.528 152.255 196.615 155.026 205.387 151.142C212.436 148.455 216.449 137.549 210.965 132.395C208.013 129.361 202.351 129.151 197.97 129.781C192.718 130.212 190.312 131.114 185.406 128.574C178.851 124.932 179.765 120.439 184.177 115.138C188.075 110.446 195.491 108.62 199.052 110.992C202.278 113.144 200.807 114.582 204 116.923C209.295 121.52 223.225 119.306 223.897 111.905V111.769L223.887 111.748Z" fill="#F9F6F0"/>
<path d="M200.954 62.3085C198.191 48.6627 192.361 34.7546 186.236 22.1271C183.83 16.8367 181.845 10.5492 184.702 5.1329C187.129 0.314912 193.495 -1.50102 198.128 1.38558C204.683 5.32184 205.828 13.7507 208.654 20.2377C211.354 27.1445 216.869 30.8603 224.097 31.9625C231.598 33.1591 239.708 33.9569 246 38.6594C256.61 46.4479 259.247 61.2273 258.207 73.7289C257.777 77.0773 256.695 80.5622 254.657 83.1549C249.908 89.4215 241.798 87.6265 238.899 80.6672C234.707 72.4693 237.922 56.0839 226.765 53.4178C219.401 53.7641 221.534 64.2084 223.183 69.3832C225.063 75.6288 227.343 83.3963 222.427 88.7707C218.498 93.2108 211.27 92.7384 207.814 88.0674C202.509 80.9296 202.813 70.8423 200.975 62.5394L200.933 62.3295L200.954 62.3085Z" fill="#F9F6F0"/>
<path d="M253.837 96.0554C257.419 93.0218 262.052 88.0044 264.773 83.5958C269.826 76.4685 273.093 63.0537 282.159 68.1236C285.983 70.7373 287.905 75.8177 288 81.0871C287.821 92.8749 279.627 102.595 272.295 111.15C267.746 116.094 262.01 121.31 257.115 124.743C254.783 126.359 252.293 127.713 249.551 128.459C242.744 130.453 232.974 128.322 229.717 121.237C226.24 113.417 235.054 109.596 240.516 106.426C245.622 103.277 249.646 99.5823 253.711 96.1498L253.816 96.0554H253.837Z" fill="#F9F6F0"/>
</g>
<defs>
<clipPath id="clip0_574_2073">
<rect width="288" height="153" fill="white"/>
</clipPath>
</defs>
</svg>
